<mxfile host="app.diagrams.net" modified="2024-07-08T05:35:54.263Z" agent="Mozilla/5.0 (X11; Linux x86_64) AppleWebKit/537.36 (KHTML, like Gecko) Chrome/126.0.0.0 Safari/537.36" version="24.6.3" etag="l3bz7KMN_EMt25KJaTeU" type="github">
  <diagram name="Page-1" id="IrvR38SEUqUFVCTSY1GX">
    <mxGraphModel>
      <root>
        <mxCell id="0" />
        <mxCell id="1" parent="0" />
      </root>
    </mxGraphModel>
  </diagram>
</mxfile>
